# xmcd
#
# Track frame offsets:
# 150
# 13497
# 25009
# 39988
# 55942
# 68806
# 80044
# 100643
# 115208
# 131179
# 141837
# 162299
# 169391
# 178132
# 189014
# 202893
# 237631
# 251272
#
# Disc length: 3487 seconds
#
# Revision: 1
# Processed by: cddbd v1.5.1PL0 Copyright (c) Steve Scherf et al.
# Submitted via: CedeCatalogueitor 2.6.0.4 http://personales.ya.com/cdcatalogueitor
#
DISCID=f80d9d12
DTITLE=Roque Montoya JARRITO - IN MEMORIAM  (Disco-1)
DYEAR=1997
DGENRE=Flamenco
TTITLE0=Algeciras-desde San Roque A La Linea
TTITLE1=Pajarillo
TTITLE2=Acariciando Tu Pelo
TTITLE3=Soñé Que Tú Me Querías
TTITLE4=Los Surcos De Mi Besana
TTITLE5=Como Recuerdo La Alhambra
TTITLE6=De Noche Cuando Te Veo
TTITLE7=Carmona Tiene Una Fuente
TTITLE8=El Divino Resplandor
TTITLE9=La Barrena (de La Copla Andaluza)
TTITLE10=Los Colosos Del Flamenco
TTITLE11=Que Amanecerán Partíos
TTITLE12=Ni Tu Mare Ni La Mia
TTITLE13=De Terciopelo El Vestío
TTITLE14=Debajo Del Olivar
TTITLE15=La Patria Del Templao
TTITLE16=Dejarme Que Llore
TTITLE17=Calorro De Nacimiento
EXTD=
EXTT0=
EXTT1=
EXTT2=
EXTT3=
EXTT4=
EXTT5=
EXTT6=
EXTT7=
EXTT8=
EXTT9=
EXTT10=
EXTT11=
EXTT12=
EXTT13=
EXTT14=
EXTT15=
EXTT16=
EXTT17=
PLAYORDER=
